<svg width="25" height="25" viewBox="0 0 25 25" fill="none" xmlns="http://www.w3.org/2000/svg">
<path d="M12.4999 24.3244C10.1612 24.3244 7.87512 23.631 5.93062 22.3317C3.98612 21.0324 2.47057 19.1857 1.57562 17.0251C0.68066 14.8645 0.446499 12.487 0.902743 10.1933C1.35899 7.89961 2.48515 5.79271 4.13881 4.13905C5.79247 2.48539 7.89936 1.35923 10.1931 0.902988C12.4867 0.446743 14.8642 0.680905 17.0248 1.57586C19.1855 2.47082 21.0322 3.98637 22.3314 5.93087C23.6307 7.87537 24.3242 10.1615 24.3242 12.5001C24.3206 15.635 23.0737 18.6405 20.857 20.8572C18.6403 23.0739 15.6348 24.3209 12.4999 24.3244ZM12.4999 1.35146C10.2949 1.35146 8.1394 2.00532 6.30601 3.23035C4.47262 4.45538 3.04367 6.19656 2.19986 8.23371C1.35604 10.2709 1.13526 12.5125 1.56544 14.6751C1.99561 16.8377 3.05742 18.8242 4.61658 20.3834C6.17575 21.9426 8.16225 23.0044 10.3249 23.4345C12.4875 23.8647 14.7291 23.6439 16.7663 22.8001C18.8034 21.9563 20.5446 20.5274 21.7696 18.694C22.9947 16.8606 23.6485 14.7051 23.6485 12.5001C23.6452 9.54432 22.4696 6.71054 20.3795 4.62048C18.2894 2.53042 15.4557 1.35477 12.4999 1.35146Z" fill="white"/>
<path d="M12.4999 22.2972C10.5622 22.2972 8.66801 21.7226 7.05685 20.6461C5.44569 19.5696 4.18995 18.0394 3.44842 16.2492C2.70688 14.459 2.51286 12.4891 2.89089 10.5886C3.26892 8.68809 4.20203 6.94238 5.5722 5.5722C6.94238 4.20203 8.68809 3.26892 10.5886 2.89089C12.4891 2.51286 14.459 2.70688 16.2492 3.44842C18.0394 4.18995 19.5696 5.44569 20.6461 7.05685C21.7226 8.66801 22.2972 10.5622 22.2972 12.4999C22.2943 15.0974 21.2611 17.5877 19.4244 19.4244C17.5877 21.2611 15.0974 22.2943 12.4999 22.2972ZM12.4999 3.37832C10.6959 3.37832 8.93228 3.91329 7.43224 4.91559C5.93219 5.91788 4.76305 7.34249 4.07266 9.00925C3.38227 10.676 3.20163 12.5101 3.55359 14.2795C3.90555 16.0489 4.7743 17.6742 6.04998 18.9499C7.32566 20.2256 8.95098 21.0943 10.7204 21.4463C12.4898 21.7983 14.3239 21.6176 15.9906 20.9272C17.6574 20.2368 19.082 19.0677 20.0843 17.5676C21.0866 16.0676 21.6216 14.304 21.6216 12.4999C21.6188 10.0816 20.6569 7.76308 18.9468 6.05304C17.2368 4.343 14.9183 3.38109 12.4999 3.37832Z" fill="white"/>
<path d="M12.5 5.83811C12.4103 5.83811 12.3244 5.80252 12.2611 5.73916C12.1977 5.67581 12.1621 5.58987 12.1621 5.50027V4.91987C12.1621 4.83027 12.1977 4.74434 12.2611 4.68098C12.3244 4.61762 12.4103 4.58203 12.5 4.58203C12.5896 4.58203 12.6755 4.61762 12.7388 4.68098C12.8022 4.74434 12.8378 4.83027 12.8378 4.91987V5.50061C12.8377 5.59015 12.8021 5.676 12.7387 5.73928C12.6754 5.80257 12.5895 5.83811 12.5 5.83811Z" fill="white"/>
<path d="M12.5 20.4185C12.4103 20.4185 12.3244 20.3829 12.2611 20.3196C12.1977 20.2562 12.1621 20.1703 12.1621 20.0807V19.4999C12.1621 19.4103 12.1977 19.3244 12.2611 19.2611C12.3244 19.1977 12.4103 19.1621 12.5 19.1621C12.5896 19.1621 12.6755 19.1977 12.7388 19.2611C12.8022 19.3244 12.8378 19.4103 12.8378 19.4999V20.0807C12.8378 20.1703 12.8022 20.2562 12.7388 20.3196C12.6755 20.3829 12.5896 20.4185 12.5 20.4185Z" fill="white"/>
<path d="M17.4493 7.88864C17.3825 7.88862 17.3172 7.8688 17.2617 7.83168C17.2061 7.79456 17.1628 7.7418 17.1373 7.68008C17.1117 7.61835 17.105 7.55044 17.1181 7.48491C17.1311 7.41939 17.1633 7.3592 17.2105 7.31195L17.621 6.90148C17.6847 6.83994 17.77 6.80588 17.8586 6.80665C17.9472 6.80742 18.0319 6.84295 18.0946 6.90559C18.1572 6.96823 18.1927 7.05296 18.1935 7.14154C18.1943 7.23012 18.1602 7.31546 18.0987 7.37918L17.6882 7.78965C17.6248 7.85301 17.5389 7.88862 17.4493 7.88864Z" fill="white"/>
<path d="M7.14026 18.1982C7.07345 18.1982 7.00815 18.1784 6.9526 18.1413C6.89706 18.1041 6.85377 18.0514 6.8282 17.9896C6.80264 17.9279 6.79595 17.86 6.80898 17.7945C6.82201 17.729 6.85417 17.6688 6.9014 17.6215L7.31188 17.211C7.37559 17.1495 7.46093 17.1155 7.54951 17.1162C7.63809 17.117 7.72283 17.1525 7.78547 17.2152C7.8481 17.2778 7.88363 17.3625 7.8844 17.4511C7.88517 17.5397 7.85112 17.625 7.78958 17.6887L7.37911 18.0992C7.31576 18.1626 7.22985 18.1982 7.14026 18.1982Z" fill="white"/>
<path d="M20.0804 12.8378H19.4997C19.4101 12.8378 19.3242 12.8022 19.2608 12.7388C19.1975 12.6755 19.1619 12.5895 19.1619 12.4999C19.1619 12.4103 19.1975 12.3244 19.2608 12.2611C19.3242 12.1977 19.4101 12.1621 19.4997 12.1621H20.0804C20.17 12.1621 20.256 12.1977 20.3193 12.2611C20.3827 12.3244 20.4183 12.4103 20.4183 12.4999C20.4183 12.5895 20.3827 12.6755 20.3193 12.7388C20.256 12.8022 20.17 12.8378 20.0804 12.8378Z" fill="white"/>
<path d="M5.50027 12.8378H4.91987C4.83027 12.8378 4.74434 12.8022 4.68098 12.7388C4.61762 12.6755 4.58203 12.5895 4.58203 12.4999C4.58203 12.4103 4.61762 12.3244 4.68098 12.2611C4.74434 12.1977 4.83027 12.1621 4.91987 12.1621H5.50061C5.59021 12.1621 5.67614 12.1977 5.7395 12.2611C5.80286 12.3244 5.83845 12.4103 5.83845 12.4999C5.83845 12.5895 5.80286 12.6755 5.7395 12.7388C5.67614 12.8022 5.59021 12.8378 5.50061 12.8378H5.50027Z" fill="white"/>
<path d="M17.8599 18.1982C17.7703 18.1982 17.6844 18.1626 17.621 18.0992L17.2106 17.6887C17.149 17.625 17.115 17.5397 17.1157 17.4511C17.1165 17.3625 17.152 17.2778 17.2147 17.2152C17.2773 17.1525 17.362 17.117 17.4506 17.1162C17.5392 17.1155 17.6245 17.1495 17.6883 17.211L18.0987 17.6215C18.146 17.6688 18.1781 17.729 18.1912 17.7945C18.2042 17.86 18.1975 17.9279 18.1719 17.9896C18.1464 18.0514 18.1031 18.1041 18.0475 18.1413C17.992 18.1784 17.9267 18.1982 17.8599 18.1982Z" fill="white"/>
<path d="M7.55056 7.88864C7.46096 7.88862 7.37505 7.85301 7.3117 7.78965L6.90123 7.37918C6.83969 7.31546 6.80564 7.23012 6.80641 7.14154C6.80718 7.05296 6.84271 6.96823 6.90535 6.90559C6.96798 6.84295 7.05272 6.80742 7.1413 6.80665C7.22988 6.80588 7.31522 6.83994 7.37893 6.90148L7.78941 7.31195C7.83664 7.3592 7.8688 7.41939 7.88183 7.48491C7.89486 7.55044 7.88817 7.61835 7.86261 7.68008C7.83704 7.7418 7.79375 7.79456 7.73821 7.83168C7.68267 7.8688 7.61736 7.88862 7.55056 7.88864Z" fill="white"/>
<path d="M10.621 14.7174C10.5542 14.7173 10.4889 14.6975 10.4333 14.6604C10.3778 14.6233 10.3345 14.5705 10.3089 14.5088C10.2834 14.4471 10.2767 14.3792 10.2897 14.3136C10.3027 14.2481 10.3349 14.1879 10.3821 14.1407L12.1622 12.3603V7.43256C12.1622 7.34296 12.1978 7.25703 12.2611 7.19368C12.3245 7.13032 12.4104 7.09473 12.5 7.09473C12.5896 7.09473 12.6755 7.13032 12.7389 7.19368C12.8023 7.25703 12.8379 7.34296 12.8379 7.43256V12.5001C12.8378 12.5897 12.8022 12.6756 12.7389 12.739L10.8598 14.6184C10.7965 14.6817 10.7106 14.7173 10.621 14.7174Z" fill="white"/>
</svg>
