<svg width="20" height="20" viewBox="0 0 20 20" fill="none" xmlns="http://www.w3.org/2000/svg">
<path d="M12.5358 12.9474C12.5719 12.8887 12.608 12.831 12.6441 12.7712C14.2673 10.0837 15.0842 7.73276 15.0725 5.78448C15.0653 4.44406 14.5278 3.16099 13.5775 2.21563C12.6272 1.27027 11.3414 0.739485 10.0009 0.739258C8.6605 0.739031 7.37446 1.26938 6.42385 2.21442C5.47323 3.15945 4.93532 4.44234 4.92766 5.78276C4.91578 7.73276 5.73281 10.084 7.35609 12.7712C7.39219 12.831 7.42828 12.8887 7.46438 12.9474C4.04688 13.3698 1.78125 14.5912 1.78125 16.0414C1.78125 17.862 5.39062 19.2881 10 19.2881C14.6094 19.2881 18.2188 17.862 18.2188 16.0414C18.2188 14.5912 15.9531 13.3698 12.5358 12.9474ZM5.47453 5.78448C5.47114 5.18794 5.58572 4.59661 5.81169 4.04451C6.03765 3.49242 6.37054 2.99044 6.79121 2.56746C7.21187 2.14448 7.71201 1.80884 8.26286 1.57984C8.81371 1.35085 9.40439 1.23302 10.0009 1.23313C10.5975 1.23325 11.1881 1.3513 11.7389 1.5805C12.2897 1.80971 12.7897 2.14554 13.2102 2.56868C13.6307 2.99182 13.9634 3.49392 14.1891 4.04611C14.4149 4.59829 14.5292 5.18966 14.5256 5.7862C14.5491 9.67026 10.9178 14.4607 10 15.6095C9.08219 14.4607 5.45078 9.6701 5.47453 5.78448ZM10 18.7412C5.41078 18.7412 2.32812 17.3451 2.32812 16.0414C2.32812 14.8851 4.61391 13.8093 7.78656 13.4604C8.40017 14.4185 9.06972 15.3396 9.79172 16.2189C9.81736 16.2491 9.84927 16.2734 9.88524 16.29C9.9212 16.3067 9.96036 16.3153 10 16.3153C10.0396 16.3153 10.0788 16.3067 10.1148 16.29C10.1507 16.2734 10.1826 16.2491 10.2083 16.2189C10.9303 15.3396 11.5999 14.4185 12.2136 13.4604C15.3855 13.8093 17.672 14.8845 17.672 16.0414C17.6719 17.3451 14.5892 18.7412 10 18.7412Z" fill="white"/>
<path d="M7.7644 17.1573C6.55096 17.002 5.5769 16.7286 5.02252 16.3878C4.99193 16.3682 4.95775 16.355 4.92197 16.3487C4.88619 16.3425 4.84954 16.3435 4.81415 16.3516C4.77875 16.3598 4.74533 16.3748 4.71583 16.396C4.68633 16.4172 4.66134 16.444 4.64232 16.4749C4.6233 16.5059 4.61063 16.5403 4.60505 16.5762C4.59947 16.612 4.6011 16.6487 4.60983 16.6839C4.61856 16.7192 4.63423 16.7523 4.65591 16.7814C4.67759 16.8106 4.70486 16.8351 4.73612 16.8536C5.35534 17.2342 6.40628 17.5348 7.69503 17.6997C7.70663 17.7012 7.71832 17.7019 7.73003 17.7018C7.79934 17.7015 7.86593 17.6749 7.91634 17.6273C7.96676 17.5797 7.99723 17.5148 8.0016 17.4456C8.00596 17.3765 7.9839 17.3082 7.93987 17.2547C7.89583 17.2012 7.83312 17.1664 7.7644 17.1573Z" fill="white"/>
<path d="M10.4593 17.288C10.0782 17.2967 9.6813 17.2947 9.29395 17.2805C9.25805 17.2791 9.22223 17.2849 9.18855 17.2974C9.15487 17.3099 9.12398 17.329 9.09765 17.3534C9.07133 17.3779 9.05007 17.4073 9.03511 17.4399C9.02015 17.4726 9.01176 17.5079 9.01044 17.5438C9.00912 17.5797 9.01488 17.6155 9.0274 17.6492C9.03992 17.6829 9.05895 17.7138 9.0834 17.7401C9.10786 17.7664 9.13726 17.7877 9.16993 17.8027C9.20259 17.8176 9.23789 17.826 9.2738 17.8273C9.51411 17.8361 9.75817 17.8406 10 17.8406C10.1591 17.8406 10.3165 17.8387 10.4721 17.835C10.5446 17.8333 10.6134 17.8029 10.6635 17.7504C10.7136 17.698 10.7408 17.6278 10.7391 17.5553C10.7387 17.5192 10.7311 17.4836 10.7168 17.4505C10.7024 17.4174 10.6816 17.3876 10.6555 17.3626C10.6295 17.3377 10.5987 17.3183 10.5649 17.3055C10.5312 17.2926 10.4953 17.2867 10.4593 17.288Z" fill="white"/>
<path d="M12.309 5.78433C12.309 5.32765 12.1735 4.88124 11.9197 4.50156C11.666 4.12187 11.3053 3.82596 10.8834 3.65125C10.4614 3.47653 9.99715 3.43086 9.54925 3.52C9.10136 3.60915 8.68995 3.8291 8.36706 4.15206C8.04417 4.47502 7.8243 4.88647 7.73525 5.33438C7.64619 5.7823 7.69196 6.24656 7.86676 6.66847C8.04156 7.09037 8.33754 7.45097 8.71728 7.70466C9.09702 7.95835 9.54345 8.09374 10.0001 8.09371C10.6123 8.09296 11.1993 7.8494 11.6321 7.41646C12.065 6.98351 12.3084 6.39655 12.309 5.78433ZM8.23795 5.78433C8.23801 5.43582 8.34141 5.09515 8.53508 4.8054C8.72875 4.51565 9.00399 4.28984 9.32599 4.15651C9.648 4.02318 10.0023 3.98833 10.3441 4.05636C10.6859 4.12439 10.9999 4.29225 11.2463 4.5387C11.4927 4.78516 11.6605 5.09915 11.7285 5.44098C11.7965 5.7828 11.7615 6.1371 11.6282 6.45908C11.4948 6.78106 11.2689 7.05625 10.9791 7.24987C10.6893 7.44349 10.3486 7.54683 10.0001 7.54683C9.53287 7.54634 9.0849 7.36048 8.75452 7.03004C8.42414 6.69961 8.23836 6.2516 8.23795 5.78433Z" fill="white"/>
</svg>
