<svg width="20" height="20" viewBox="0 0 20 20" fill="none" xmlns="http://www.w3.org/2000/svg">
<g clip-path="url(#clip0)">
<path d="M18.9743 3.33301H1.02566C0.461523 3.33301 0 3.79453 0 4.35863V15.6407C0 16.2048 0.461523 16.6664 1.02566 16.6664H18.9744C19.5384 16.6664 20 16.2048 20 15.6407V4.35863C20 3.79453 19.5385 3.33301 18.9743 3.33301ZM18.5895 4.10219L10.59 10.1023C10.4462 10.2117 10.2254 10.2802 9.99996 10.2792C9.77457 10.2802 9.55383 10.2117 9.40996 10.1023L1.41051 4.10219H18.5895ZM14.3164 10.4982L18.6754 15.8828C18.6798 15.8882 18.6851 15.8923 18.6898 15.8972H1.31023C1.31484 15.8921 1.32023 15.8882 1.32461 15.8828L5.68359 10.4982C5.81715 10.333 5.79184 10.091 5.62641 9.95711C5.46129 9.82355 5.21922 9.84887 5.08563 10.014L0.769219 15.3461V4.58297L8.94867 10.7176C9.25613 10.9466 9.6302 11.0473 9.99992 11.0484C10.3691 11.0476 10.7435 10.9468 11.0512 10.7176L19.2306 4.58297V15.346L14.9143 10.014C14.7807 9.84891 14.5384 9.82352 14.3736 9.95711C14.2082 10.0907 14.1828 10.333 14.3164 10.4982Z" fill="white"/>
</g>
<defs>
<clipPath id="clip0">
<rect width="20" height="20" fill="white"/>
</clipPath>
</defs>
</svg>
