<svg width="25" height="25" viewBox="0 0 25 25" fill="none" xmlns="http://www.w3.org/2000/svg">
<g clip-path="url(#clip0)">
<path d="M21.4862 0H20.4114C19.9389 0 19.9389 0.732528 20.4114 0.732528H21.4862C22.5963 0.732528 23.4994 1.63236 23.4994 2.73838V11.2148C23.4994 12.3209 22.5963 13.2207 21.4862 13.2207H20.2672C20.1867 13.2207 20.1086 13.2472 20.0446 13.2961L17.8077 15.0072V13.587C17.8077 13.3847 17.6437 13.2207 17.4414 13.2207H12.9837C12.6187 13.2207 12.2679 13.1244 11.9585 12.9412V8.82965C11.9585 8.05951 11.5662 7.37909 10.9706 6.97655V2.73838C10.9706 1.63236 11.8737 0.732528 12.9837 0.732528H18.1161C18.5886 0.732528 18.5886 0 18.1161 0H12.9837C11.4698 0 10.238 1.22845 10.238 2.73838V6.65462C10.0703 6.61458 9.89561 6.59275 9.7158 6.59275H3.01092C1.77436 6.59275 0.768311 7.59622 0.768311 8.82965V9.62053C0.768311 10.093 1.50084 10.093 1.50084 9.62053V8.82965C1.50084 8.00013 2.17823 7.32528 3.01092 7.32528H9.71584C10.5485 7.32528 11.226 8.00013 11.226 8.82965V13.087C11.2216 13.1193 11.2218 13.1519 11.226 13.184V15.514C11.226 15.5601 11.2232 15.6059 11.219 15.6515H10.4637C9.63141 15.6515 8.93756 16.2523 8.79369 17.0418C8.76038 17.0543 8.7284 17.0719 8.69875 17.0947L7.06058 18.3596V17.3846C7.06058 17.1824 6.89664 17.0184 6.69431 17.0184H3.01092C2.17823 17.0184 1.50084 16.3435 1.50084 15.514V11.8181C1.50084 11.3457 0.768311 11.3457 0.768311 11.8181V15.5141C0.768311 16.7475 1.77436 17.751 3.01092 17.751H6.3281V19.1052C6.3281 19.3989 6.68484 19.5752 6.91822 19.3951L8.7659 17.9685V22.0889C8.7659 23.0229 9.52758 23.7827 10.4638 23.7827H12.7114V24.6374C12.7114 24.931 13.0681 25.1075 13.3015 24.9273L14.7839 23.7827H15.2219C16.158 23.7827 16.9197 23.0229 16.9197 22.0889V21.4386C16.9197 20.9662 16.1872 20.9662 16.1872 21.4386V22.0889C16.1872 22.619 15.7542 23.0502 15.2219 23.0502H14.6589C14.5779 23.0502 14.4992 23.077 14.4351 23.1265L13.4439 23.8918V23.4164C13.4439 23.2141 13.2799 23.0501 13.0776 23.0501H10.4637C9.93145 23.0501 9.49838 22.6189 9.49838 22.0889V17.3453C9.49838 16.8153 9.9314 16.3841 10.4637 16.3841H15.2219C15.7541 16.3841 16.1872 16.8153 16.1872 17.3453V19.1434C16.1872 19.6158 16.9197 19.6158 16.9197 19.1434V17.3454C16.9197 16.4114 16.158 15.6516 15.2219 15.6516H11.9543C11.9571 15.6059 11.9585 13.7559 11.9585 13.7559C12.2814 13.8858 12.6277 13.9533 12.9838 13.9533H17.0752V15.7485C17.0752 16.0415 17.4304 16.218 17.664 16.0394L20.3913 13.9533H21.4863C23.0002 13.9533 24.232 12.7248 24.232 11.2149V2.73838C24.2319 1.22845 23.0002 0 21.4862 0V0Z" fill="white"/>
<path d="M3.90435 12.7216C3.70203 12.7216 3.53809 12.8856 3.53809 13.0879C3.53809 13.2902 3.70203 13.4542 3.90435 13.4542H4.984L4.78231 14.674C4.7493 14.8735 4.88437 15.0621 5.08392 15.0951C5.10418 15.0985 5.12425 15.1001 5.14408 15.1001C5.32008 15.1001 5.47533 14.9729 5.50502 14.7935L5.72644 13.4542H6.61001L6.40833 14.6741C6.37531 14.8736 6.51039 15.0621 6.70993 15.0952C6.7302 15.0985 6.75027 15.1001 6.7701 15.1001C6.9461 15.1001 7.10135 14.9729 7.13104 14.7936L7.35246 13.4542H8.82205C9.02438 13.4542 9.18832 13.2903 9.18832 13.088C9.18832 12.8857 9.02438 12.7217 8.82205 12.7217H7.47357L7.62129 11.8282H8.82205C9.02438 11.8282 9.18832 11.6642 9.18832 11.462C9.18832 11.2597 9.02438 11.0957 8.82205 11.0957H7.7424L7.94409 9.87585C7.97711 9.67631 7.84203 9.48776 7.64249 9.45475C7.4427 9.42164 7.25439 9.55681 7.22138 9.75635L6.99996 11.0957H6.11639L6.31808 9.8758C6.35109 9.67626 6.21601 9.48771 6.01647 9.4547C5.81644 9.42159 5.62843 9.55676 5.59537 9.7563L5.37395 11.0956H3.90435C3.70203 11.0956 3.53809 11.2596 3.53809 11.4619C3.53809 11.6641 3.70203 11.8281 3.90435 11.8281H5.25284L5.10511 12.7216H3.90435ZM5.99533 11.8281H6.8789L6.73117 12.7216H5.8476L5.99533 11.8281Z" fill="white"/>
</g>
<defs>
<clipPath id="clip0">
<rect width="25" height="25" fill="white"/>
</clipPath>
</defs>
</svg>
