<svg width="25" height="25" viewBox="0 0 25 25" fill="none" xmlns="http://www.w3.org/2000/svg">
<g clip-path="url(#clip0)">
<path d="M0.556426 7.82848C0.705293 8.37698 1.2055 8.75601 1.77383 8.75093C1.85575 8.75098 1.93754 8.74317 2.018 8.72759L4.54283 8.24345L6.48518 7.8172C7.1245 7.70227 7.56421 7.11003 7.48927 6.4648L7.25222 4.64701C7.22263 4.42075 7.74135 4.16994 8.22506 4.09704C11.0291 3.64336 13.8873 3.63594 16.6936 4.07497C17.4648 4.20787 17.6352 4.33165 17.6719 4.37788C17.7494 4.56923 17.7607 4.78098 17.704 4.9795L17.534 6.18777C17.4384 6.57842 17.5062 6.99114 17.7219 7.33062C18.0239 7.64969 18.4318 7.84772 18.8693 7.88766C19.161 7.94347 19.3855 7.99971 19.6101 8.0543C19.8484 8.11347 20.0863 8.1726 20.3963 8.23178L22.6549 8.66759C23.0477 8.7834 23.4685 8.75894 23.8452 8.5984C24.2417 8.3429 24.4985 7.91905 24.5414 7.44931L24.5552 7.38891C24.5989 7.19645 24.6568 7.00559 24.7147 6.81478C24.8796 6.35705 24.9685 5.87544 24.978 5.38905C24.9108 4.53188 24.5157 3.73364 23.8748 3.16043C20.99 0.328982 16.0003 0.00146484 12.5006 0.00146484C4.51075 0.00151367 1.46638 2.30136 0.319332 4.23082C0.00431405 4.76458 -0.0822036 5.40277 0.0793579 6.00112L0.556426 7.82848ZM1.03515 4.65745C2.07175 2.91299 4.90238 0.834808 12.5007 0.834808C15.8559 0.834808 20.6251 1.13772 23.2916 3.75502C23.7763 4.17858 24.0809 4.77131 24.1432 5.41199C24.1286 5.80879 24.0516 6.20081 23.9149 6.57359C23.8519 6.78192 23.7899 6.99231 23.7407 7.20353L23.7261 7.26685C23.6566 7.57684 23.6011 7.78557 23.4582 7.86012C23.246 7.91793 23.0216 7.91388 22.8116 7.84845L20.5547 7.41767C20.263 7.36186 20.0376 7.30562 19.8131 7.25103C19.5747 7.19186 19.3368 7.13273 19.0277 7.07355C18.8282 7.03523 18.4936 6.97146 18.3873 6.83109C18.3204 6.6645 18.311 6.48033 18.3607 6.30778L18.5311 5.09951C18.6305 4.69319 18.5677 4.26412 18.3561 3.90335C18.0869 3.52003 17.4665 3.36672 16.837 3.25799C13.9425 2.80377 10.9943 2.81021 8.10173 3.27717C7.19012 3.4155 6.31893 3.92713 6.42728 4.75916L6.66476 6.57652C6.68195 6.78861 6.53025 6.97712 6.31937 7.00564L4.37619 7.42768L1.86137 7.90934C1.644 7.95841 1.4257 7.83107 1.3614 7.61771L0.885994 5.79283C0.780923 5.4097 0.834679 5.0004 1.03515 4.65745Z" fill="white"/>
<path d="M24.9255 19.0206C24.9214 19.0098 24.9172 18.9994 24.9126 18.9898C24.8737 18.8862 24.8214 18.7882 24.7572 18.6982L19.4613 11.5111C19.1464 11.0856 18.6487 10.8342 18.1193 10.8332H17.036L16.6677 7.88637C16.6514 7.43806 16.283 7.0832 15.8344 7.0835H14.5845C14.1243 7.0835 13.7512 7.45657 13.7512 7.91679V11.2499C13.7512 11.48 13.9377 11.6665 14.1679 11.6665C14.398 11.6665 14.5845 11.48 14.5845 11.2499V7.91679H15.8344C15.8343 7.93407 15.8354 7.95136 15.8377 7.96845L16.2543 11.3016C16.2804 11.5101 16.4575 11.6665 16.6676 11.6665H18.1192C18.3838 11.667 18.6326 11.7926 18.79 12.0053L23.7593 18.7494H20.4174C20.1873 18.7494 20.0008 18.936 20.0008 19.166C20.0008 19.3962 20.1873 19.5827 20.4174 19.5827H24.1671V22.9158C24.1671 23.6061 23.6076 24.1657 22.9172 24.1657H2.08541C1.39512 24.1657 0.835491 23.6061 0.835491 22.9158V19.5827H18.3343C18.5644 19.5827 18.751 19.3961 18.751 19.166C18.751 18.9359 18.5644 18.7494 18.3343 18.7494H1.24337L6.21262 12.0053C6.37004 11.7926 6.6188 11.667 6.88343 11.6665H8.33499C8.54509 11.6665 8.72227 11.51 8.7483 11.3016L9.16492 7.96845C9.16726 7.95131 9.16839 7.93407 9.16824 7.91679H10.4182V11.2499C10.4182 11.48 10.6047 11.6665 10.8348 11.6665H12.5013C12.7314 11.6665 12.9179 11.48 12.9179 11.2499C12.9179 11.0198 12.7314 10.8333 12.5013 10.8333H11.2514V7.91684C11.2514 7.45662 10.8783 7.08355 10.4181 7.08355H9.16819C8.71959 7.08325 8.3513 7.43811 8.3349 7.88642L7.967 10.8333H6.88372C6.35495 10.8348 5.85796 11.0861 5.54338 11.5112L0.24554 18.6985C0.180945 18.7884 0.128703 18.8865 0.0901309 18.9902C0.0855413 18.9994 0.0813912 19.0098 0.0771923 19.0202C0.0284162 19.1547 0.00307611 19.2966 0.00219727 19.4397V22.9157C0.00356436 24.0657 0.935436 24.9975 2.08541 24.999H22.9174C24.0673 24.9976 24.9992 24.0657 25.0006 22.9157V19.4397C24.9997 19.2968 24.9744 19.155 24.9255 19.0206Z" fill="white"/>
<path d="M9.75524 13.9527C10.139 13.7479 10.5488 13.5964 10.9735 13.5023C11.9794 13.2777 13.0224 13.2777 14.0282 13.5023C14.1735 13.5368 14.3261 13.4909 14.4283 13.382C14.5305 13.2731 14.5666 13.1179 14.5229 12.9751C14.4793 12.8324 14.3625 12.7238 14.217 12.6907C13.0869 12.4377 11.9148 12.4377 10.7847 12.6907C10.2858 12.802 9.80445 12.9809 9.35394 13.2223C8.959 13.429 8.61093 13.715 8.3315 14.0623C7.77915 14.7262 7.77915 15.6898 8.3315 16.3537C8.61093 16.701 8.959 16.987 9.35394 17.1937C9.8045 17.4351 10.2858 17.6139 10.7847 17.7253C11.9146 17.9798 13.087 17.9798 14.217 17.7253C14.7158 17.614 15.1972 17.4351 15.6477 17.1937C16.0426 16.987 16.3907 16.701 16.6701 16.3537C17.2225 15.6898 17.2225 14.7262 16.6701 14.0623C16.5807 13.9406 16.4324 13.877 16.2826 13.8958C16.1328 13.9146 16.0049 14.0129 15.9483 14.1529C15.8916 14.2928 15.9152 14.4525 16.0097 14.5701C16.3307 14.9348 16.3307 15.4812 16.0097 15.8459C15.7995 16.101 15.5398 16.311 15.2464 16.4633C14.8627 16.6681 14.4528 16.8196 14.0282 16.9137C13.0223 17.1383 11.9793 17.1383 10.9734 16.9137C10.5489 16.8197 10.1391 16.6682 9.75558 16.4633C9.462 16.3111 9.2022 16.1011 8.99186 15.8459C8.67084 15.4812 8.67084 14.9348 8.99186 14.5701C9.2022 14.315 9.4618 14.105 9.75524 13.9527Z" fill="white"/>
</g>
<defs>
<clipPath id="clip0">
<rect width="25" height="25" fill="white"/>
</clipPath>
</defs>
</svg>
