<svg width="25" height="25" viewBox="0 0 25 25" fill="none" xmlns="http://www.w3.org/2000/svg">
<g clip-path="url(#clip0)">
<path d="M6.96763 7.97424L6.99024 7.98465C7.05616 8.01482 7.12525 8.02913 7.19331 8.02913C7.37837 8.02913 7.55542 7.92337 7.6376 7.74412C7.7499 7.49895 7.64224 7.20916 7.39707 7.09681L7.37686 7.08758C7.13199 6.97449 6.8419 7.08143 6.72891 7.3263C6.61588 7.57112 6.72276 7.86126 6.96763 7.97424Z" fill="white"/>
<path d="M24.8849 4.73686C24.7449 4.57075 24.5121 4.51704 24.3135 4.60512C24.0163 4.73691 23.7138 4.85292 23.4069 4.95283C23.8047 4.44887 24.1138 3.87402 24.3153 3.25215C24.378 3.05893 24.3145 2.84712 24.1559 2.72026C23.9973 2.59341 23.7766 2.57803 23.602 2.68149C22.7491 3.18681 21.8324 3.55063 20.8734 3.76479C19.8717 2.8021 18.5195 2.25488 17.1211 2.25488C14.1354 2.25488 11.7065 4.68383 11.7065 7.66947C11.7065 7.86542 11.7172 8.06268 11.7384 8.25995C10.9707 8.18685 10.2108 8.04887 9.47196 7.84813C9.21176 7.77743 8.94345 7.93109 8.87275 8.19135C8.80204 8.4516 8.9557 8.71986 9.21596 8.79056C10.2165 9.06239 11.2528 9.22689 12.2959 9.27943C12.4488 9.28714 12.5954 9.22313 12.6938 9.10648C12.7921 8.98983 12.8303 8.83397 12.797 8.68509C12.7214 8.34755 12.683 8.0058 12.683 7.66947C12.683 5.22231 14.674 3.23144 17.1211 3.23144C18.344 3.23144 19.5233 3.74155 20.3567 4.63095C20.4715 4.75351 20.6412 4.80854 20.8062 4.77641C21.4766 4.64614 22.1293 4.45034 22.7584 4.19135C22.4058 4.68085 21.9554 5.09731 21.4306 5.41142C21.233 5.52973 21.1449 5.77006 21.2193 5.98803C21.2936 6.206 21.5101 6.34242 21.7389 6.31528C22.1899 6.26176 22.6366 6.17826 23.0766 6.06542C22.6764 6.48417 22.2374 6.86586 21.7623 7.20746C21.6315 7.3016 21.5554 7.45424 21.5592 7.61537L21.5741 8.24774C21.571 14.895 16.5111 21.7688 8.0454 21.7688C6.11079 21.7688 4.21524 21.3574 2.47173 20.5679C4.52417 20.4128 6.45024 19.6681 8.08349 18.391C8.24614 18.2638 8.31122 18.0481 8.24599 17.8521C8.18075 17.6562 7.99936 17.5225 7.79291 17.5182C6.15844 17.4841 4.69614 16.562 3.94912 15.1557C4.00239 15.1572 4.05606 15.1579 4.11001 15.1579C4.59439 15.1579 5.07275 15.0962 5.53183 14.9746C5.75117 14.9165 5.90156 14.715 5.89487 14.4882C5.88818 14.2614 5.72617 14.0691 5.50381 14.024C3.68247 13.6549 2.30215 12.1815 2.0045 10.3901C2.54283 10.5869 3.10078 10.6935 3.67158 10.7081C3.88902 10.7133 4.08394 10.5747 4.14961 10.3673C4.21519 10.1598 4.13569 9.93407 3.95464 9.81351C2.71841 8.99051 1.98038 7.61093 1.98038 6.12314C1.98038 5.57289 2.08126 5.03139 2.2754 4.52685C3.07144 5.4058 3.97017 6.18339 4.95503 6.84447C5.17895 6.99481 5.48227 6.9351 5.63257 6.71122C5.78291 6.48735 5.72319 6.18398 5.49932 6.03368C4.38511 5.28579 3.38902 4.37797 2.53863 3.3355C2.43755 3.21157 2.28204 3.14521 2.12276 3.15727C1.96334 3.16958 1.82003 3.25913 1.73912 3.39707C1.25811 4.21714 1.00386 5.15981 1.00386 6.12319C1.00386 7.31361 1.39117 8.4472 2.08335 9.36996C1.95162 9.31239 1.82125 9.24808 1.69258 9.17704C1.54131 9.09354 1.35718 9.09618 1.20836 9.18397C1.05958 9.27181 0.968269 9.43168 0.968269 9.60448V9.66454C0.968269 11.471 1.86978 13.1121 3.27881 14.1052C3.27588 14.1047 3.27295 14.1041 3.27002 14.1035C3.10083 14.0717 2.9272 14.1311 2.81319 14.2603C2.69922 14.3895 2.66172 14.5691 2.71455 14.7331C3.28745 16.5115 4.72422 17.8399 6.47636 18.3101C5.02681 19.1716 3.38365 19.6218 1.66099 19.6218C1.28712 19.6218 0.92115 19.6013 0.542098 19.5592C0.316806 19.5341 0.103573 19.6676 0.0278412 19.8815C-0.0479399 20.0953 0.0336029 20.3332 0.224618 20.4556C2.56197 21.9536 5.26636 22.7454 8.04545 22.7454C10.2807 22.7454 12.3726 22.3013 14.2632 21.4254C15.9975 20.622 17.5299 19.4739 18.8179 18.0129C21.1901 15.322 22.5506 11.7606 22.5506 8.24188C22.5506 8.23807 22.5506 8.23422 22.5505 8.23041L22.5415 7.84594C23.4715 7.14184 24.2701 6.29384 24.9177 5.32231C25.0382 5.1416 25.0248 4.90297 24.8849 4.73686Z" fill="white"/>
<path d="M18.3934 14.1121C18.1622 13.9734 17.8622 14.0484 17.7235 14.2796L17.7226 14.281C17.5839 14.5123 17.6593 14.8115 17.8905 14.9502C17.969 14.9973 18.0554 15.0197 18.1408 15.0197C18.307 15.0197 18.4692 14.9348 18.5609 14.782C18.6996 14.5508 18.6247 14.2508 18.3934 14.1121Z" fill="white"/>
<path d="M17.4406 15.5817C17.2325 15.4102 16.9248 15.4398 16.7532 15.6479C15.8985 16.6849 14.888 17.5406 13.7497 18.1911C13.5156 18.325 13.4343 18.6232 13.5681 18.8573C13.6582 19.0151 13.8229 19.1034 13.9925 19.1034C14.0746 19.1034 14.1579 19.0827 14.2343 19.039C15.4755 18.3296 16.5765 17.3977 17.5068 16.2691C17.6783 16.061 17.6487 15.7532 17.4406 15.5817Z" fill="white"/>
</g>
<defs>
<clipPath id="clip0">
<rect width="25" height="25" fill="white"/>
</clipPath>
</defs>
</svg>
